{"title":"INNA Ft. Yandel - In Your Eyes [Music Video] 1080p [Sbyky]","uid":9120017,"size":100157338,"categoryP":"video","categoryS":"music_videos","magnet":"?xt=urn:btih:1e5ec14bfe5f3fae5dab384c11715cb53bbd499f&amp;dn=INNA+Ft.+Yandel+-+In+Your+Eyes+%5BMusic+Video%5D+1080p+%5BSbyky%5D&amp;tr=udp%3A%2F%2Ftracker.openbittorrent.com%3A80&amp;tr=udp%3A%2F%2Fopen.demonii.com%3A1337&amp;tr=udp%3A%2F%2Ftracker.coppersurfer.tk%3A6969&amp;tr=udp%3A%2F%2Fexodus.desync.com%3A6969","seeders":2,"leechers":0,"uploader":"Sbyky","files":1,"time":1383111025,"description":"[IMG]http://cdn.piczend.com/images/vtM2EFzx/1383043780_inyoureyes.jpg[/IMG]\n\nGeneral\nComplete name                            : INNA Ft. Yandel - In Your Eyes [Music Video] 1080p [Sbyky].MP4\nFormat                                   : MPEG-4\nFormat profile                           : Base Media / Version 2\nCodec ID                                 : mp42\nFile size                                : 95.5 MiB\nDuration                                 : 3mn 15s\nOverall bit rate mode                    : Variable\nOverall bit rate                         : 4 097 Kbps\nEncoded date                             : UTC 2013-10-15 07:05:17\nTagged date                              : UTC 2013-10-15 07:05:17\n\nVideo\nID                                       : 1\nFormat                                   : AVC\nFormat/Info                              : Advanced Video Codec\nFormat profile                           : &lt;a class=&quot;__cf_email__&quot; href=&quot;/cdn-cgi/l/email-protection&quot; data-cfemail=&quot;1159787679515d253f21&quot;&gt;[email&amp;#160;protected]&lt;/a&gt;&lt;script cf-hash='f9e31' type=&quot;text/javascript&quot;&gt;\n/* &lt;![CDATA[ */!function(){try{var t=&quot;currentScript&quot;in document?document.currentScript:function(){for(var t=document.getElementsByTagName(&quot;script&quot;),e=t.length;e--;)if(t[e].getAttribute(&quot;cf-hash&quot;))return t[e]}();if(t&amp;&amp;t.previousSibling){var e,r,n,i,c=t.previousSibling,a=c.getAttribute(&quot;data-cfemail&quot;);if(a){for(e=&quot;&quot;,r=parseInt(a.substr(0,2),16),n=2;a.length-n;n+=2)i=parseInt(a.substr(n,2),16)^r,e+=String.fromCharCode(i);e=document.createTextNode(e),c.parentNode.replaceChild(e,c)}}}catch(u){}}();/* ]]&gt; */&lt;/script&gt;\nFormat settings, CABAC                   : Yes\nFormat settings, ReFrames                : 2 frames\nCodec ID                                 : avc1\nCodec ID/Info                            : Advanced Video Coding\nDuration                                 : 3mn 15s\nBit rate                                 : 3 845 Kbps\nWidth                                    : 1 920 pixels\nHeight                                   : 1 080 pixels\nDisplay aspect ratio                     : 16:9\nFrame rate mode                          : Constant\nFrame rate                               : 25.000 fps\nColor space                              : YUV\nChroma subsampling                       : 4:2:0\nBit depth                                : 8 bits\nScan type                                : Progressive\nBits/(Pixel*Frame)                       : 0.074\nStream size                              : 89.6 MiB (94%)\nEncoded date                             : UTC 2013-10-15 07:05:17\nTagged date                              : UTC 2013-10-15 07:05:17\n\nAudio\nID                                       : 2\nFormat                                   : AAC\nFormat/Info                              : Advanced Audio Codec\nFormat profile                           : LC\nCodec ID                                 : 40\nDuration                                 : 3mn 15s\nBit rate mode                            : Variable\nBit rate                                 : 254 Kbps\nChannel(s)                               : 2 channels\nChannel positions                        : Front: L R\nSampling rate                            : 44.1 KHz\nCompression mode                         : Lossy\nStream size                              : 5.91 MiB (6%)\nEncoded date                             : UTC 2013-10-15 07:04:50\nTagged date                              : UTC 2013-10-15 07:04:50\n\nShared By Sbyky\n[IMG]http://cdn.piczend.com/images/X3Ag13N3/1379453786_saythanks.gif[/IMG]\n[IMG]http://cdn.piczend.com/images/gGqhX2S8/1379453780_keepseeding.gif[/IMG]","torrent":{"xt":"urn:btih:1e5ec14bfe5f3fae5dab384c11715cb53bbd499f","amp;dn":"INNA+Ft.+Yandel+-+In+Your+Eyes+%5BMusic+Video%5D+1080p+%5BSbyky%5D","amp;tr":["udp%3A%2F%2Ftracker.openbittorrent.com%3A80","udp%3A%2F%2Fopen.demonii.com%3A1337","udp%3A%2F%2Ftracker.coppersurfer.tk%3A6969","udp%3A%2F%2Fexodus.desync.com%3A6969"],"infoHash":"1e5ec14bfe5f3fae5dab384c11715cb53bbd499f","infoHashBuffer":{"type":"Buffer","data":[30,94,193,75,254,95,63,174,93,171,56,76,17,113,92,181,59,189,73,159]},"announce":[],"urlList":[]}}